<svg width="20" height="22" viewBox="0 0 35 32" fill="none" xmlns="http://www.w3.org/2000/svg">
<g id="&#240;&#159;&#166;&#134; icon &#34;log out circle&#34;">
<path id="Vector" d="M0 15.9993L8.74912 22.9986V17.7491H24.4975V14.2495H8.74912V9L0 15.9993Z" fill="#FF0000"/>
<path id="Vector_2" d="M19.2499 0.25C15.0416 0.25 11.087 1.88959 8.11401 4.86429L10.5883 7.33854C12.9015 5.02527 15.9777 3.74965 19.2499 3.74965C22.5221 3.74965 25.5983 5.02527 27.9115 7.33854C30.2248 9.65181 31.5004 12.728 31.5004 16.0002C31.5004 19.2723 30.2248 22.3485 27.9115 24.6618C25.5983 26.9751 22.5221 28.2507 19.2499 28.2507C15.9777 28.2507 12.9015 26.9751 10.5883 24.6618L8.11401 27.1361C11.087 30.1108 15.0416 31.7503 19.2499 31.7503C23.4582 31.7503 27.4128 30.1108 30.3858 27.1361C33.3605 24.1631 35.0001 20.2085 35.0001 16.0002C35.0001 11.7918 33.3605 7.83724 30.3858 4.86429C27.4128 1.88959 23.4582 0.25 19.2499 0.25Z" fill="#FF0000"/>
</g>
</svg>
